<svg width="125" height="76" viewBox="0 0 125 76" fill="none" xmlns="http://www.w3.org/2000/svg">
<path d="M46.5986 72.0713C47.9875 72.0713 49.093 72.9591 49.093 74.0467C49.093 75.1122 47.9875 76 46.5986 76H16.4966C15.1077 76 14.0023 75.1122 14.0023 74.0467C14.0023 68.4311 14.3991 64.125 15.8447 60.618H2.49433C1.13379 60.618 0 59.7301 0 58.6647C0 53.4708 0.680272 50.3189 3.88322 47.8107C6.63265 45.6577 11.0261 44.2815 18.3957 42.6834C15.9014 41.2407 14.0306 38.6659 13.1519 35.7804C12.5283 33.7827 12.3583 31.6297 12.6984 29.5654C13.0669 27.4346 14.0306 25.3703 15.6746 23.75C17.8571 21.5748 21.1735 20.1764 25.822 20.1764C30.4705 20.1764 33.7869 21.5748 35.9694 23.75C37.6134 25.3703 38.5771 27.4346 38.9456 29.5654C39.3141 31.6297 39.1156 33.7827 38.4921 35.7804C37.6134 38.6659 35.771 41.2407 33.2766 42.6834C35.2891 43.1051 37.1032 43.5491 38.6905 43.9708C40.5329 44.4591 42.0918 44.9474 43.4524 45.4801C45.72 44.9252 48.1859 44.3925 50.822 43.8154V41.7734C45.6066 39.5093 41.6667 34.3598 39.8526 28.4556C38.6905 24.7488 38.3503 20.7313 39.0023 16.8914C39.6825 12.9848 41.4116 9.27804 44.3878 6.32593C48.271 2.50818 54.1667 0 62.5 0C70.8333 0 76.729 2.50818 80.6123 6.32593C83.5884 9.27804 85.3175 12.9848 85.9977 16.8914C86.6497 20.7313 86.3095 24.7488 85.1474 28.4556C83.3333 34.3598 79.3934 39.5093 74.178 41.7734V43.8154C76.8141 44.3925 79.2801 44.9252 81.5476 45.4801C82.9082 44.9474 84.4671 44.4591 86.3095 43.9708C87.8968 43.5491 89.7109 43.1273 91.7234 42.6834C89.229 41.2407 87.3866 38.6659 86.5079 35.7804C85.8844 33.7827 85.6859 31.6297 86.0544 29.5654C86.4229 27.4346 87.3866 25.3703 89.0306 23.75C91.2132 21.5748 94.5295 20.1764 99.178 20.1764C103.827 20.1764 107.143 21.5748 109.325 23.75C110.969 25.3703 111.933 27.4346 112.302 29.5654C112.642 31.6297 112.472 33.7827 111.848 35.7804C110.969 38.6659 109.099 41.2407 106.604 42.6834C113.974 44.2815 118.367 45.6577 121.117 47.8107C124.32 50.3189 125 53.4708 125 58.6647C125 59.7301 123.866 60.618 122.506 60.618H109.155C110.601 64.125 110.998 68.4311 110.998 74.0467C110.998 75.1122 109.892 76 108.503 76H78.4014C77.0125 76 75.907 75.1122 75.907 74.0467C75.907 72.9591 77.0125 72.0713 78.4014 72.0713H105.981C105.867 66.6776 105.272 62.7932 103.345 59.8189C103.203 59.6636 103.09 59.486 103.005 59.3084C102.353 58.3762 101.531 57.5105 100.51 56.7336C95.7767 53.0269 86.9048 50.5409 71.1451 47.2336C70.0113 47.0561 69.161 46.257 69.161 45.3248V40.5304C69.161 39.7535 69.7846 39.021 70.7483 38.7103C75.1984 37.3563 78.6565 32.8727 80.3005 27.5456C81.3209 24.2827 81.6327 20.7535 81.0374 17.4241C80.4989 14.1834 79.11 11.1203 76.7007 8.76752C73.7245 5.83762 69.1327 3.92874 62.5 3.92874C55.8674 3.92874 51.2755 5.83762 48.2993 8.76752C45.89 11.1203 44.5011 14.1834 43.9626 17.4241C43.3674 20.7535 43.6791 24.2827 44.6996 27.5456C46.3152 32.8283 49.7449 37.2675 54.11 38.6659C55.102 38.9322 55.839 39.6647 55.839 40.5304V45.3248C55.839 46.1904 55.102 46.9673 53.9683 47.2114C38.1236 50.5409 29.2234 53.0047 24.4898 56.7336C23.4694 57.5105 22.6474 58.3762 21.9955 59.3084C21.9104 59.486 21.7971 59.6635 21.6553 59.7967C19.7279 62.7932 19.1327 66.6776 19.0193 72.0713H46.5986ZM18.1406 56.6893C18.9342 55.7348 19.8413 54.8248 20.9467 53.9813C24.2914 51.3621 29.0533 49.3423 35.9977 47.389C34.212 46.9451 32.1712 46.479 29.8186 45.9907C28.7132 45.7465 27.9762 44.9696 27.9762 44.104V41.6846C27.9762 40.8189 28.6848 40.0864 29.6769 39.8201C31.4909 39.1986 32.9365 37.2231 33.6451 34.8703C34.127 33.3166 34.2687 31.6519 34.0136 30.0981C33.7585 28.611 33.1349 27.2348 32.0578 26.1694C30.7823 24.9042 28.7698 24.0829 25.822 24.0829C22.9025 24.0829 20.8617 24.9042 19.5862 26.1694C18.5091 27.2348 17.8855 28.611 17.6304 30.0981C17.3753 31.6519 17.517 33.3166 17.9989 34.8703C18.7358 37.2897 20.2381 39.2874 22.0805 39.8645C23.0726 40.153 23.6678 40.8855 23.6678 41.6846V44.104C23.6678 45.0362 22.8175 45.8353 21.6837 46.0128C13.9456 47.6332 9.63719 48.8318 7.4263 50.5631C5.75397 51.8727 5.18708 53.7371 5.04535 56.6893H18.1406ZM89.0023 47.389C95.9467 49.3423 100.709 51.3621 104.053 53.9813C105.159 54.8248 106.066 55.7348 106.859 56.6893H119.955C119.813 53.7371 119.246 51.8727 117.574 50.5631C115.363 48.8318 111.054 47.6332 103.316 46.0128C102.183 45.8353 101.332 45.0362 101.332 44.104V41.6846C101.332 40.8855 101.927 40.153 102.92 39.8645C104.762 39.2874 106.264 37.2897 107.001 34.8703C107.483 33.3388 107.625 31.6519 107.37 30.0981C107.115 28.611 106.491 27.2348 105.414 26.1694C104.138 24.9042 102.098 24.0829 99.178 24.0829C96.2302 24.0829 94.2177 24.9042 92.9422 26.1694C91.8651 27.2348 91.2415 28.611 90.9864 30.0981C90.7313 31.6519 90.873 33.3166 91.3549 34.8703C92.0635 37.2231 93.5091 39.1986 95.3231 39.8201C96.3152 40.0864 97.0238 40.8189 97.0238 41.6846V44.104C97.0238 44.9696 96.2869 45.7465 95.1814 45.9907C92.8288 46.479 90.788 46.9451 89.0023 47.389ZM44.8696 66.1449V58.243C44.8696 57.1554 46.0034 56.2675 47.364 56.2675H54.9603V50.3411C54.9603 49.2757 56.0658 48.3878 57.4547 48.3878H67.5454C68.9342 48.3878 70.0397 49.2757 70.0397 50.3411V56.2675H77.6361C78.9966 56.2675 80.1304 57.1554 80.1304 58.243V66.1449C80.1304 67.2325 78.9966 68.0981 77.6361 68.0981H70.0397V74.0245C70.0397 75.1121 68.9342 76 67.5454 76H57.4547C56.0658 76 54.9603 75.1121 54.9603 74.0245V68.0981H47.364C46.0034 68.0981 44.8696 67.2325 44.8696 66.1449ZM49.8866 60.1963V64.1916H57.4547C58.8435 64.1916 59.949 65.0572 59.949 66.1449V72.0713H65.051V66.1449C65.051 65.0572 66.1565 64.1916 67.5454 64.1916H75.1134V60.1963H67.5454C66.1565 60.1963 65.051 59.3084 65.051 58.243V52.2944H59.949V58.243C59.949 59.3084 58.8435 60.1963 57.4547 60.1963H49.8866Z" fill="#555555"/>
</svg>
