<svg width="123" height="85" viewBox="0 0 123 85" fill="none" xmlns="http://www.w3.org/2000/svg">
<path fill-rule="evenodd" clip-rule="evenodd" d="M37.5404 0H120.35C121.7 0 122.81 1.11 122.81 2.46V16.89H122.88V68.79V71.67V72.29H39.5104V68.79H119.38V17.5H32.6104V4.93C32.6104 2.22 34.8304 0 37.5404 0ZM0.0104078 41.38C-0.299592 35.58 4.46041 34.1 10.9104 34.48L19.0504 43.55L27.0204 34.6L46.7604 34.49C54.2204 35.34 52.6504 43.14 46.7604 43.47H33.8404L30.8004 61.73L28.5004 80.27C27.9004 82.23 26.7004 83.51 24.9704 84.17L13.7404 84.25C11.4804 83.91 10.1304 82.59 9.73041 80.27L7.98041 63.76C3.38041 64.2 1.84041 60.94 1.36041 56.22L0.0104078 41.38ZM18.5604 9.77C24.0904 9.77 28.5704 14.25 28.5704 19.78C28.5704 25.31 24.0904 29.79 18.5604 29.79C13.0304 29.79 8.55041 25.31 8.55041 19.78C8.54041 14.26 13.0304 9.77 18.5604 9.77ZM18.9404 39.29L12.6004 32.34L14.4704 30.85C17.2204 32 19.9504 32 22.6504 30.85L25.2104 32.37L18.9404 39.29ZM66.0404 4.48C68.0504 4.48 69.6804 6.11 69.6804 8.12C69.6804 10.13 68.0504 11.76 66.0404 11.76C64.0304 11.76 62.4004 10.13 62.4004 8.12C62.4004 6.11 64.0304 4.48 66.0404 4.48ZM45.3304 4.48C47.3404 4.48 48.9704 6.11 48.9704 8.12C48.9704 10.13 47.3404 11.76 45.3304 11.76C43.3204 11.76 41.6904 10.13 41.6904 8.12C41.6904 6.11 43.3204 4.48 45.3304 4.48ZM55.6804 4.48C57.6904 4.48 59.3204 6.11 59.3204 8.12C59.3204 10.13 57.6904 11.76 55.6804 11.76C53.6704 11.76 52.0404 10.13 52.0404 8.12C52.0404 6.11 53.6704 4.48 55.6804 4.48ZM109.11 6.13C108.74 5.76 108.74 5.15 109.11 4.78C109.48 4.41 110.09 4.41 110.46 4.78L112.46 6.78L114.46 4.78C114.83 4.41 115.44 4.41 115.81 4.78C116.18 5.15 116.18 5.76 115.81 6.13L113.81 8.13L115.81 10.13C116.18 10.5 116.18 11.11 115.81 11.48C115.44 11.85 114.83 11.85 114.46 11.48L112.46 9.48L110.46 11.48C110.09 11.85 109.48 11.85 109.11 11.48C108.74 11.11 108.74 10.5 109.11 10.13L111.11 8.13L109.11 6.13Z" fill="#555555"/>
</svg>
