<svg width="129" height="97" viewBox="0 0 129 97" fill="none" xmlns="http://www.w3.org/2000/svg">
<path fill-rule="evenodd" clip-rule="evenodd" d="M23.0162 4.94376e-06C25.1685 -0.00202191 27.273 0.619224 29.0635 1.78512C30.8539 2.95102 32.2498 4.60915 33.0744 6.54968C33.899 8.49021 34.1153 10.6259 33.6959 12.6865C33.2765 14.747 32.2403 16.6399 30.7184 18.1254C29.1965 19.6109 27.2573 20.6223 25.1463 21.0317C23.0352 21.441 20.8472 21.2299 18.8592 20.425C16.8711 19.6201 15.1723 18.2576 13.9779 16.51C12.7834 14.7624 12.147 12.7082 12.1491 10.6073C12.1491 7.79411 13.294 5.09609 15.332 3.10682C17.37 1.11756 20.1341 4.94376e-06 23.0162 4.94376e-06ZM15.341 23.2644L19.2048 33.1544H19.6143L21.4938 26.8207L20.4438 25.7446C19.6878 24.6685 19.9503 23.4386 21.3573 23.2132C21.8641 23.1769 22.3729 23.1769 22.8797 23.2132C23.4369 23.1819 23.996 23.2025 24.5492 23.2747C25.8511 23.5616 25.9876 24.7915 25.3366 25.7753L24.2867 26.8514L26.2501 33.1544H26.6491L30.135 23.2644C30.2907 23.4013 30.4556 23.528 30.6285 23.6436C31.6298 23.7322 32.6001 24.0292 33.4739 24.5148C34.7599 24.7653 35.8923 25.5021 36.6238 26.5645L44.9186 37.7458L50.8299 38.8526V17.0845H42.4301C41.9122 17.0845 41.4154 16.8837 41.0492 16.5262C40.6829 16.1687 40.4772 15.6838 40.4772 15.1782C40.4772 14.6727 40.6829 14.1878 41.0492 13.8303C41.4154 13.4728 41.9122 13.272 42.4301 13.272H81.4364V7.70698C81.4727 7.22424 81.6947 6.77275 82.058 6.44323C82.4212 6.1137 82.8987 5.93054 83.3946 5.93054C83.8905 5.93054 84.3681 6.1137 84.7313 6.44323C85.0946 6.77275 85.3166 7.22424 85.3528 7.70698V13.3232H126.858C127.376 13.3232 127.873 13.5241 128.239 13.8816C128.605 14.2391 128.811 14.7239 128.811 15.2295C128.811 15.7351 128.605 16.2199 128.239 16.5774C127.873 16.9349 127.376 17.1357 126.858 17.1357H118.532V64.2897H127.047C127.565 64.2897 128.062 64.4906 128.428 64.8481C128.794 65.2056 129 65.6904 129 66.196C129 66.7015 128.794 67.1864 128.428 67.5439C128.062 67.9014 127.565 68.1022 127.047 68.1022H85.6258V76.8648C85.7122 76.9388 85.8034 77.0072 85.8988 77.0698L98.0994 88.3433C98.3035 88.5092 98.4705 88.7142 98.5902 88.9456C98.7098 89.177 98.7796 89.4298 98.7952 89.6886C98.8108 89.9473 98.7719 90.2065 98.6809 90.45C98.5899 90.6935 98.4487 90.9162 98.266 91.1043C98.0833 91.2924 97.8631 91.442 97.6189 91.5438C97.3746 91.6455 97.1116 91.6973 96.8461 91.696C96.5805 91.6947 96.3181 91.6402 96.075 91.5359C95.8318 91.4317 95.6132 91.2799 95.4325 91.0899L85.6258 81.9891V90.1881C85.5896 90.6708 85.3675 91.1223 85.0043 91.4518C84.6411 91.7813 84.1635 91.9645 83.6676 91.9645C83.1717 91.9645 82.6942 91.7813 82.331 91.4518C81.9677 91.1223 81.7457 90.6708 81.7094 90.1881V81.6612L71.5352 91.1002C71.3507 91.2734 71.1327 91.4092 70.8939 91.4995C70.6552 91.5898 70.4004 91.6328 70.1444 91.6261C69.8884 91.6195 69.6364 91.5632 69.4029 91.4606C69.1694 91.358 68.9591 91.2111 68.7843 91.0285C68.6058 90.8499 68.4658 90.6381 68.3727 90.4058C68.2795 90.1735 68.235 89.9252 68.2418 89.6758C68.2487 89.4264 68.3067 89.1809 68.4126 88.9538C68.5184 88.7266 68.6698 88.5225 68.8578 88.3535L81.0585 77.08C81.2433 76.9025 81.4654 76.7661 81.7094 76.6804V68.1022H42.3881C41.8702 68.1022 41.3734 67.9014 41.0072 67.5439C40.6409 67.1864 40.4352 66.7015 40.4352 66.196C40.4352 65.6904 40.6409 65.2056 41.0072 64.8481C41.3734 64.4906 41.8702 64.2897 42.3881 64.2897H50.7879V49.0193L41.0547 47.1438C39.7532 46.9282 38.5873 46.2306 37.7998 45.1965L33.6734 39.611V39.7545L33.3374 55.9268L37.5373 81.7944L39.1227 90.6595C40.0152 96.5832 30.723 100.098 28.4236 92.3198L23.0057 61.1434L17.4934 92.822C16.4434 98.5509 6.85721 98.6022 6.79421 91.6434L12.8735 56.1318L12.4115 36.9566C11.8937 37.5759 11.4726 38.2666 11.1621 39.0063C10.5146 40.4931 10.1585 42.0853 10.1121 43.7002L9.27214 54.8815C8.81015 60.7232 -0.104077 61.0819 0.000920211 54.779C0.0534186 51.9504 0.315911 49.1012 0.630901 46.2009C1.23988 40.6461 1.36588 37.2026 4.61028 31.6683C5.82498 29.6127 7.4283 27.8008 9.33514 26.3288C10.8384 25.1705 12.5897 24.3579 14.459 23.9511C14.7699 23.7438 15.0647 23.5143 15.341 23.2644ZM54.7358 39.2113L65.7184 27.9378C65.9494 27.6839 66.2304 27.478 66.5446 27.3323C66.8588 27.1866 67.1998 27.1041 67.5474 27.0897C67.8949 27.0752 68.2419 27.1292 68.5676 27.2484C68.8933 27.3675 69.1912 27.5494 69.4434 27.7833C69.6957 28.0171 69.8971 28.2981 70.0358 28.6094C70.1745 28.9208 70.2476 29.2563 70.2508 29.5958C70.254 29.9353 70.1871 30.272 70.0542 30.5858C69.9213 30.8996 69.7252 31.1841 69.4773 31.4223L59.1456 42.0194C59.628 42.7816 59.8923 43.656 59.9109 44.5517C59.9296 45.4473 59.7019 46.3315 59.2517 47.1122C58.8014 47.8928 58.145 48.5414 57.3508 48.9903C56.5565 49.4393 55.6535 49.6722 54.7358 49.6649V64.2897H114.657V17.0845H54.7358V39.2113Z" fill="#623966"/>
</svg>
