<svg width="111" height="100" viewBox="0 0 111 100" fill="none" xmlns="http://www.w3.org/2000/svg">
<path d="M30.2864 16.2112H80.6176L83.4339 61.9516C83.0753 69.7562 82.9031 70.0095 80.2557 73.4802C76.9998 76.8405 73.0553 78.6166 69.4646 79.8843C60.4565 83.064 50.5055 83.0425 38.4964 76.0374C34.5826 73.8995 32.8379 64.5215 33.1024 60.6688L30.2861 16.209L30.2864 16.2112Z" fill="#673C6B" stroke="#D3D3D3" stroke-width="0.241"/>
<path d="M0 20.7288L54.3413 0L111 19.0012L56.328 55.2767L0 20.7288Z" fill="#673C6B"/>
<path d="M20.3017 64.6357L23.2883 64.4971C24.9773 76.4265 28.0616 93.0069 27.1218 95.7074C25.9224 100.157 20.2615 102.036 18.9268 96.9601C19.0038 87.3633 20.5267 77.4118 20.3014 64.6346L20.3017 64.6357Z" fill="#673C6B"/>
<path d="M59.9872 17.9651C58.0208 19.8334 53.902 16.2922 53.2377 17.7832C53.1683 17.9394 53.2369 18.8235 53.2473 19.0857C54.869 21.1452 57.9988 21.1829 59.9052 19.1113L59.9872 17.9651Z" fill="#673C6B"/>
<path d="M55.321 18.2002L56.999 19.0641C48.5365 22.8357 26.1568 26.6165 22.018 33.6535C20.772 35.8151 21.9582 45.6082 21.5612 51.5671L19.5937 51.5861C19.8641 45.7587 19.007 37.0957 19.8876 33.7447C20.8476 30.3289 24.8215 25.8822 55.3226 18.2002L55.321 18.2002Z" fill="#673C6B"/>
<path d="M22.5678 55.593L19.1533 56.4336L20.1026 66.1909L23.517 65.3502L22.5678 55.593Z" fill="#673C6B"/>
<path d="M59.5738 16.525C65.7881 12.9476 72.2419 9.91108 79.8695 10.1123C80.2105 9.97138 80.7876 11.0525 79.5415 11.1098C72.8193 11.5754 66.5246 14.7632 60.1066 17.1661C59.2962 17.6415 59.0812 16.7847 59.5738 16.525Z" fill="#673C6B"/>
<path d="M59.685 18.9805C67.0418 21.7435 74.4511 25.2646 81.9202 33.066C82.305 33.2709 82.5079 34.8847 81.257 33.6968C74.4563 27.439 67.1526 24.2221 59.9939 20.128C59.0316 19.7762 59.11 18.7386 59.685 18.9805Z" fill="#673C6B"/>
<path d="M55.4049 16.9557C48.1439 13.4718 40.5785 10.3862 31.4988 9.71176C31.0983 9.56402 30.3725 10.349 31.8526 10.5299C39.8309 11.6286 47.2015 14.8159 54.7476 17.4005C55.6941 17.8618 55.9813 17.2131 55.4049 16.9557Z" fill="#673C6B"/>
<path d="M23.4631 54.3184C23.4666 54.9371 23.3995 55.5509 23.2657 56.1243C23.1318 56.6977 22.9339 57.2194 22.6834 57.6591C22.4328 58.0988 22.1346 58.4478 21.806 58.686C21.4774 58.9242 21.1248 59.0469 20.7687 59.0469C20.4126 59.0469 20.0601 58.9242 19.7314 58.686C19.4028 58.4478 19.1046 58.0988 18.854 57.6591C18.6035 57.2194 18.4056 56.6977 18.2718 56.1243C18.1379 55.5509 18.0708 54.9371 18.0743 54.3184" fill="#673C6B"/>
<path d="M59.9879 17.9667C58.4745 19.8572 54.7697 19.7941 53.2197 17.9667C53.2197 16.6341 54.7348 15.5537 56.6039 15.5537C58.4729 15.5537 59.9879 16.6341 59.9879 17.9667Z" fill="#673C6B"/>
<path d="M60.896 17.6842C67.1104 14.1067 73.5641 11.0703 81.1917 11.2714C81.5327 11.1306 82.1099 12.2117 80.8637 12.269C74.1418 12.7345 67.8468 15.9227 61.4288 18.3253C60.6185 18.8007 60.4034 17.9438 60.896 17.6842Z" fill="#673C6B"/>
<path d="M58.6372 19.9268C66.0737 22.7539 73.5617 26.3437 81.1001 34.2371C81.489 34.4456 81.6904 36.0695 80.4277 34.8668C73.5619 28.5301 66.1799 25.2468 58.9468 21.0828C57.974 20.7226 58.0559 19.68 58.6371 19.9271L58.6372 19.9268Z" fill="#673C6B"/>
<path d="M30.1913 9.37281C37.71 10.4729 45.3274 12.1661 53.2652 17.2423C53.6622 17.3476 53.9632 18.5965 52.641 17.8404C45.4651 13.8884 37.9715 12.4208 30.5699 10.2362C29.587 10.1 29.6023 9.26613 30.1915 9.37265L30.1913 9.37281Z" fill="#673C6B"/>
</svg>
