<svg width="152" height="95" viewBox="0 0 152 95" fill="none" xmlns="http://www.w3.org/2000/svg">
<path d="M152 94.0725L151.306 94.1493C149.845 94.2183 147.133 94.2812 143.17 94.3379L139.963 94.3791C137.669 94.406 135.062 94.4313 132.142 94.455C129.223 94.4788 125.99 94.5009 122.445 94.5215C115.306 94.563 107.603 94.5934 99.3372 94.6129C95.2041 94.6226 90.9303 94.6296 86.5155 94.6338C84.4842 94.6394 77.5452 94.6397 65.6983 94.6347C61.0818 94.6293 56.6706 94.6215 52.4648 94.6114C50.1052 94.6092 44.2587 94.5888 34.9253 94.5501C27.7463 94.5158 21.3888 94.4722 15.853 94.4193C3.49348 94.2912 -1.63912 94.1582 0.455186 94.02C1.37571 93.9511 3.65442 93.8877 7.29131 93.8296C9.10977 93.8006 11.2677 93.7728 13.7653 93.7463C14.6299 93.7312 19.0999 93.6949 27.1754 93.6374C40.5962 93.5526 56.8743 93.5084 76.0098 93.5049C80.7936 93.5058 85.3989 93.5092 89.8256 93.5152C100.58 93.5346 106.818 93.5492 108.54 93.5592C116.322 93.5863 123.39 93.6236 129.743 93.6711C136.096 93.7185 141.091 93.7713 144.728 93.8294C148.68 93.9044 150.644 93.951 150.619 93.9692C151.419 94.0024 151.879 94.0368 152 94.0725Z" fill="black" fill-opacity="0.403922"/>
<path d="M130.206 50.2197C132.227 50.2197 133.848 47.6712 133.647 44.6565C133.472 42.0293 131.857 40.1043 130.052 40.1043L105.465 40.105C105.106 40.1043 104.815 39.6789 104.815 39.1541C104.815 38.6292 105.106 38.2041 105.465 38.2041L130.007 38.2042C132.612 38.2041 134.884 41.1402 134.962 44.9486C135.043 48.889 132.882 52.1208 130.206 52.1208L105.465 52.1214C105.106 52.1207 104.815 51.6952 104.815 51.1704C104.815 50.6458 105.106 50.2197 105.465 50.2197H130.206Z" fill="#304E4A"/>
<path d="M133.65 44.657C133.851 47.6714 132.229 50.22 130.208 50.2199H105.591C106.664 46.8481 106.664 43.4765 105.591 40.1045L130.054 40.1048C131.859 40.1048 133.474 42.0295 133.65 44.657Z" fill="#EBF0F3"/>
<path d="M131.527 42.4125H106.151C106.128 42.2788 106.098 42.1452 106.071 42.0117L131.527 42.012V42.4125Z" fill="#E1E6E9"/>
<path d="M131.526 43.8874L106.343 43.8877C106.332 43.7535 106.309 43.6198 106.295 43.4863L131.526 43.4866V43.8874Z" fill="#E1E6E9"/>
<path d="M131.526 45.3629H106.387C106.389 45.229 106.389 45.0954 106.387 44.9619L131.526 44.9622V45.3629Z" fill="#E1E6E9"/>
<path d="M131.526 46.8376L106.295 46.8382C106.309 46.7037 106.332 46.5701 106.343 46.4365L131.526 46.4368V46.8376Z" fill="#E1E6E9"/>
<path d="M131.527 48.3131L106.071 48.3128C106.098 48.179 106.128 48.0454 106.151 47.9121L131.527 47.9128V48.3131Z" fill="#E1E6E9"/>
<path d="M108.534 64.2248C106.514 64.2247 104.892 61.6761 105.093 58.6615C105.268 56.0341 106.884 54.1094 108.688 54.1095L133.275 54.1096C133.634 54.1093 133.925 53.6838 133.925 53.1593C133.925 52.6344 133.634 52.209 133.275 52.209L108.733 52.2092C106.128 52.2092 103.857 55.1452 103.779 58.9534C103.698 62.8941 105.858 66.1256 108.534 66.1257L133.275 66.1261C133.634 66.1255 133.925 65.7 133.925 65.1754V65.1747C133.925 64.65 133.634 64.2246 133.275 64.2246L108.534 64.2248Z" fill="#884636"/>
<path d="M105.091 58.6615C104.89 61.676 106.512 64.2246 108.532 64.2247H133.15C132.077 60.8527 132.077 57.481 133.15 54.1094L108.686 54.1096C106.881 54.1095 105.266 56.034 105.091 58.6615Z" fill="#EBF0F3"/>
<path d="M107.215 56.4165L132.591 56.4172C132.614 56.2827 132.644 56.1491 132.671 56.0156L107.215 56.0157V56.4165Z" fill="#E1E6E9"/>
<path d="M107.215 57.8905L132.397 57.8902C132.408 57.7565 132.431 57.6229 132.445 57.4893L107.215 57.4896V57.8905Z" fill="#E1E6E9"/>
<path d="M107.215 59.3659H132.354C132.352 59.2321 132.352 59.0983 132.354 58.9648L107.215 58.9651V59.3659Z" fill="#E1E6E9"/>
<path d="M107.215 60.8443L132.445 60.8448C132.431 60.7105 132.408 60.5767 132.397 60.4434L107.215 60.4437V60.8443Z" fill="#E1E6E9"/>
<path d="M107.215 62.3189L132.671 62.3195C132.644 62.185 132.614 62.0513 132.591 61.918L107.215 61.9181V62.3189Z" fill="#E1E6E9"/>
<path d="M108.816 78.004C106.795 78.0041 105.173 75.4555 105.374 72.4408C105.55 69.8136 107.165 67.8885 108.97 67.8887L133.556 67.889C133.915 67.8886 134.206 67.4631 134.206 66.9384C134.206 66.4135 133.915 65.9883 133.556 65.9883L109.015 65.9887C106.41 65.9886 104.138 68.9245 104.06 72.7327C103.979 76.6734 106.139 79.9049 108.815 79.9051L133.556 79.9057C133.915 79.9049 134.206 79.4796 134.206 78.9547C134.206 78.4299 133.915 78.0041 133.556 78.0041L108.816 78.004Z" fill="#535D66"/>
<path d="M105.372 72.4409C105.171 75.4556 106.793 78.0042 108.814 78.0042L133.431 78.0049C132.358 74.6324 132.358 71.2606 133.431 67.8887L108.968 67.889C107.163 67.8891 105.548 69.8137 105.372 72.4409Z" fill="#EBF0F3"/>
<path d="M107.496 70.1948L132.872 70.1946C132.896 70.061 132.926 69.9274 132.952 69.7939L107.496 69.794V70.1948Z" fill="#E1E6E9"/>
<path d="M107.496 71.6696L132.679 71.6701C132.69 71.5357 132.713 71.402 132.727 71.2686L107.496 71.2689V71.6696Z" fill="#E1E6E9"/>
<path d="M107.496 73.146L132.635 73.1465C132.633 73.0122 132.633 72.8786 132.635 72.7451L107.496 72.7452V73.146Z" fill="#E1E6E9"/>
<path d="M107.496 74.6214L132.727 74.6222C132.713 74.4878 132.69 74.3538 132.679 74.2207L107.496 74.2208V74.6214Z" fill="#E1E6E9"/>
<path d="M107.496 76.0963L132.952 76.0961C132.926 75.9624 132.896 75.8288 132.872 75.6953L107.496 75.6955V76.0963Z" fill="#E1E6E9"/>
<path d="M130.723 91.9404C132.743 91.9403 134.365 89.392 134.164 86.3773C133.988 83.7499 132.373 81.8252 130.568 81.825L105.982 81.8253C105.623 81.825 105.332 81.3996 105.332 80.875V80.8757C105.332 80.3502 105.623 79.9248 105.982 79.9248L130.523 79.925C133.129 79.925 135.4 82.861 135.478 86.6692C135.559 90.6097 133.399 93.8415 130.723 93.8414L105.982 93.842C105.623 93.8415 105.332 93.416 105.332 92.8912C105.332 92.3666 105.623 91.9406 105.982 91.9406L130.723 91.9413V91.9404Z" fill="#81C665"/>
<path d="M134.163 86.3772C134.365 89.3919 132.743 91.9404 130.722 91.9403L106.104 91.9405C107.177 88.5687 107.177 85.197 106.104 81.8252L130.568 81.8253C132.373 81.8253 133.988 83.7499 134.163 86.3772Z" fill="#EBF0F3"/>
<path d="M132.04 84.1312L106.664 84.132C106.641 83.9975 106.61 83.864 106.584 83.7305L132.04 83.7305V84.1312Z" fill="#E1E6E9"/>
<path d="M132.041 85.6063L106.858 85.6065C106.848 85.4724 106.825 85.3388 106.811 85.2051L132.041 85.2053V85.6063Z" fill="#E1E6E9"/>
<path d="M132.04 87.0815L106.901 87.0818C106.903 86.948 106.903 86.8144 106.901 86.6807L132.04 86.6808V87.0815Z" fill="#E1E6E9"/>
<path d="M132.041 88.558L106.811 88.5588C106.825 88.4246 106.848 88.2906 106.858 88.1572L132.041 88.1578V88.558Z" fill="#E1E6E9"/>
<path d="M132.04 90.0338L106.584 90.0342C106.611 89.9002 106.641 89.7666 106.664 89.6328L132.04 89.6331V90.0338Z" fill="#E1E6E9"/>
<path d="M98.3837 91.9383C100.404 91.9383 102.026 89.3899 101.825 86.3752C101.65 83.748 100.035 81.823 98.2296 81.823L73.6429 81.8236C73.284 81.8231 72.9932 81.3975 72.9932 80.8729C72.9932 80.3479 73.284 79.9229 73.6429 79.9229L98.1846 79.923C100.79 79.9229 103.061 82.859 103.139 86.6673C103.22 90.6077 101.06 93.8393 98.3841 93.8393L73.6429 93.8402C73.284 93.8394 72.9932 93.4137 72.9932 92.8891C72.9932 92.3645 73.284 91.9385 73.6429 91.9385L98.3837 91.9383Z" fill="#304E4A"/>
<path d="M101.823 86.3746C102.025 89.3892 100.403 91.9378 98.3822 91.9375L73.7647 91.9378C74.8376 88.5659 74.8376 85.1941 73.7646 81.8223L98.2281 81.8224C100.033 81.8224 101.648 83.7473 101.823 86.3746Z" fill="#EBF0F3"/>
<path d="M99.7013 84.1303H74.3248C74.3017 83.9965 74.2715 83.8629 74.2451 83.7295L99.7013 83.7298V84.1303Z" fill="#E1E6E9"/>
<path d="M99.7013 85.6052L74.5186 85.6055C74.5078 85.4713 74.4848 85.3375 74.4707 85.2041L99.7013 85.2042V85.6052Z" fill="#E1E6E9"/>
<path d="M99.7015 87.0806L74.5625 87.0806C74.5643 86.9468 74.5643 86.8131 74.5625 86.6797L99.7015 86.6798V87.0806Z" fill="#E1E6E9"/>
<path d="M99.7023 88.5564L74.4717 88.5571C74.4857 88.4226 74.5087 88.289 74.5196 88.1553L99.7023 88.1556V88.5564Z" fill="#E1E6E9"/>
<path d="M99.7013 90.0327L74.2451 90.0325C74.2716 89.8987 74.3017 89.7652 74.3249 89.6318L99.7013 89.6325V90.0327Z" fill="#E1E6E9"/>
<path d="M76.3263 78.2461C74.3055 78.2459 72.6839 75.6976 72.8852 72.6829C73.0605 70.0556 74.6755 68.1307 76.4805 68.1306L101.067 68.1314C101.426 68.1306 101.717 67.7053 101.717 67.1805C101.717 66.6555 101.426 66.2305 101.067 66.2305L76.5255 66.2306C73.9204 66.2306 71.6487 69.1667 71.5706 72.9748C71.4897 76.9155 73.6499 80.1471 76.326 80.1472L101.067 80.1478C101.426 80.1472 101.717 79.7215 101.717 79.1967C101.717 78.6721 101.426 78.2463 101.067 78.2463L76.3263 78.2461Z" fill="#634C3C"/>
<path d="M72.8861 72.6814C72.6847 75.6959 74.3064 78.2444 76.3272 78.2444L100.945 78.2445C99.8719 74.8726 99.8719 71.501 100.945 68.1289L76.4814 68.1292C74.6763 68.1291 73.0614 70.0538 72.8861 72.6814Z" fill="#EBF0F3"/>
<path d="M75.0068 70.4368L100.383 70.4371C100.406 70.3033 100.437 70.1696 100.463 70.0361L75.0068 70.0363V70.4368Z" fill="#E1E6E9"/>
<path d="M75.0068 71.9128L100.19 71.9131C100.2 71.7791 100.223 71.6452 100.237 71.5117L75.0068 71.5119V71.9128Z" fill="#E1E6E9"/>
<path d="M75.0098 73.3881L100.149 73.3884C100.147 73.2544 100.147 73.1207 100.149 72.9873L75.0098 72.9875V73.3881Z" fill="#E1E6E9"/>
<path d="M75.0098 74.8638L100.24 74.8646C100.226 74.73 100.203 74.5965 100.192 74.4629L75.0098 74.4632V74.8638Z" fill="#E1E6E9"/>
<path d="M75.0098 76.3393H100.466C100.439 76.2054 100.409 76.0718 100.386 75.9385L75.0098 75.9392V76.3393Z" fill="#E1E6E9"/>
<path d="M98.8144 64.5048C100.835 64.5048 102.457 61.9564 102.256 58.9417C102.08 56.3144 100.465 54.3895 98.6602 54.3895L74.0735 54.3902C73.7147 54.3894 73.4239 53.9641 73.4239 53.4393C73.4239 52.9143 73.7147 52.4893 74.0735 52.4893L98.6152 52.4895C101.22 52.4893 103.492 55.4255 103.57 59.2336C103.651 63.1743 101.491 66.4058 98.8147 66.4058L74.0735 66.4065C73.7147 66.4058 73.4238 65.9803 73.4238 65.4554C73.4238 64.9308 73.7147 64.505 74.0735 64.505L98.8144 64.5048Z" fill="#0D6AAC"/>
<path d="M102.255 58.9421C102.456 61.9566 100.835 64.5052 98.8139 64.505L74.1963 64.5052C75.2692 61.1333 75.2692 57.7616 74.1963 54.3896L98.6597 54.3899C100.465 54.3899 102.08 56.3146 102.255 58.9421Z" fill="#EBF0F3"/>
<path d="M100.132 56.6966L74.7555 56.6969C74.7324 56.563 74.7022 56.4294 74.6758 56.2959L100.132 56.2961V56.6966Z" fill="#E1E6E9"/>
<path d="M100.13 58.1725L74.9473 58.1729C74.9365 58.0388 74.9135 57.905 74.8994 57.7715L100.13 57.7717V58.1725Z" fill="#E1E6E9"/>
<path d="M100.13 59.6479L74.9912 59.6482C74.993 59.5141 74.993 59.3805 74.9912 59.2471L100.13 59.2473V59.6479Z" fill="#E1E6E9"/>
<path d="M100.13 61.1237L74.8994 61.1243C74.9134 60.9899 74.9365 60.8562 74.9473 60.7227L100.13 60.723V61.1237Z" fill="#E1E6E9"/>
<path d="M100.132 62.5991L74.6758 62.599C74.7023 62.4651 74.7324 62.3316 74.7555 62.1982L100.132 62.1991V62.5991Z" fill="#E1E6E9"/>
<path d="M67.541 91.9382C69.5618 91.9382 71.1834 89.3899 70.9821 86.3752C70.8068 83.7477 69.1918 81.8229 67.3868 81.8229L42.8001 81.8236C42.4413 81.823 42.1504 81.3975 42.1504 80.8727C42.1504 80.3478 42.4413 79.9229 42.8001 79.9229L67.3418 79.9229C69.9469 79.9227 72.2186 82.8587 72.2968 86.6671C72.3776 90.6075 70.2173 93.8393 67.5413 93.8393L42.8001 93.8401C42.4412 93.8394 42.1504 93.4137 42.1504 92.8889C42.1504 92.3642 42.4412 91.9384 42.8001 91.9384L67.541 91.9382Z" fill="#304E4A"/>
<path d="M70.9816 86.3755C71.1829 89.3901 69.5612 91.9386 67.5404 91.9384L42.9229 91.9387C43.9958 88.5668 43.9958 85.1951 42.9229 81.8232L67.3863 81.8233C69.1914 81.8233 70.8063 83.748 70.9816 86.3755Z" fill="#EBF0F3"/>
<path d="M68.8595 84.1311L43.483 84.1313C43.4599 83.9975 43.4297 83.8639 43.4033 83.7305L68.8595 83.7305V84.1311Z" fill="#E1E6E9"/>
<path d="M68.8596 85.606L43.6768 85.6065C43.666 85.4722 43.643 85.3385 43.6289 85.2051L68.8596 85.2052V85.606Z" fill="#E1E6E9"/>
<path d="M68.8598 87.0814L43.7207 87.0816C43.7225 86.9477 43.7225 86.8141 43.7207 86.6807L68.8598 86.6807V87.0814Z" fill="#E1E6E9"/>
<path d="M68.8596 88.5573L43.6289 88.5581C43.643 88.4236 43.666 88.29 43.6768 88.1562L68.8596 88.1566V88.5573Z" fill="#E1E6E9"/>
<path d="M68.8595 90.0326L43.4033 90.0325C43.4298 89.8987 43.46 89.7652 43.4831 89.6318L68.8595 89.6324V90.0326Z" fill="#E1E6E9"/>
<path d="M45.4845 78.2461C43.4638 78.2461 41.8421 75.6976 42.0434 72.6829C42.2187 70.0557 43.8337 68.1307 45.6387 68.1307L70.2254 68.1314C70.5842 68.1306 70.8751 67.7052 70.8751 67.1805C70.8751 66.6555 70.5842 66.2305 70.2254 66.2305L45.6837 66.2307C43.0786 66.2305 40.8069 69.1666 40.7288 72.9749C40.6479 76.9154 42.8081 80.1471 45.4842 80.1471L70.2254 80.1477C70.5843 80.147 70.8751 79.7215 70.8751 79.1967C70.8751 78.672 70.5843 78.2461 70.2254 78.2461H45.4845Z" fill="#634C3C"/>
<path d="M42.0433 72.6842C41.8419 75.6987 43.4637 78.2474 45.4844 78.2473H70.102C69.0291 74.8754 69.0291 71.5038 70.102 68.1318L45.6386 68.1321C43.8335 68.1321 42.2186 70.0568 42.0433 72.6842Z" fill="#EBF0F3"/>
<path d="M44.167 70.4379L69.5434 70.438C69.5666 70.3042 69.5967 70.1706 69.6231 70.0371L44.167 70.0374V70.4379Z" fill="#E1E6E9"/>
<path d="M44.167 71.9129L69.3497 71.9131C69.3606 71.7789 69.3836 71.6452 69.3976 71.5117L44.167 71.5119V71.9129Z" fill="#E1E6E9"/>
<path d="M44.167 73.3882L69.3061 73.3883C69.3043 73.2544 69.3043 73.1207 69.3061 72.9873L44.167 72.9875V73.3882Z" fill="#E1E6E9"/>
<path d="M44.167 74.8649L69.3976 74.8656C69.3836 74.7311 69.3606 74.5975 69.3497 74.4639L44.167 74.4642V74.8649Z" fill="#E1E6E9"/>
<path d="M44.167 76.3403L69.6232 76.34C69.5967 76.2063 69.5666 76.0727 69.5434 75.9395L44.167 75.9403V76.3403Z" fill="#E1E6E9"/>
<path d="M35.7844 91.6298C37.8052 91.6051 39.4121 89.0366 39.1935 86.0246C39.003 83.3996 37.3769 81.4947 35.572 81.517L10.9862 81.8199C10.6274 81.8243 10.3341 81.4023 10.3311 80.8776C10.3281 80.3528 10.6164 79.924 10.9753 79.9196L35.516 79.6175C38.1211 79.585 40.4096 82.4932 40.5098 86.3005C40.6133 90.2399 38.4717 93.4978 35.7957 93.531L11.0554 93.8355C10.6966 93.8401 10.4033 93.4181 10.4003 92.8933C10.3972 92.3688 10.6856 91.9392 11.0444 91.9346L35.7844 91.6298Z" fill="#634C3C"/>
<path d="M39.1934 86.0253C39.4121 89.0372 37.8051 91.606 35.7843 91.6304L11.1676 91.9338C12.2211 88.5488 12.2017 85.1774 11.1094 81.8189L35.5719 81.5178C37.3769 81.4954 39.0029 83.4001 39.1934 86.0253Z" fill="#EBF0F3"/>
<path d="M37.0571 83.8069L11.6816 84.1196C11.6577 83.986 11.6268 83.853 11.5996 83.7198L37.0548 83.4062L37.0571 83.8069Z" fill="#E1E6E9"/>
<path d="M37.0651 85.282L11.8832 85.5924C11.8716 85.4584 11.8478 85.325 11.833 85.1916L37.0627 84.8809L37.0651 85.282Z" fill="#E1E6E9"/>
<path d="M37.0751 86.757L11.9369 87.0669C11.9379 86.9329 11.9371 86.7993 11.9346 86.6658L37.0728 86.3564L37.0751 86.757Z" fill="#E1E6E9"/>
<path d="M37.0804 88.2327L11.8506 88.5434C11.8639 88.4095 11.8861 88.2756 11.8962 88.1418L37.0781 87.832L37.0804 88.2327Z" fill="#E1E6E9"/>
<path d="M37.0901 89.7077L11.6348 90.0208C11.6605 89.8868 11.6898 89.7527 11.7122 89.6193L37.0877 89.3066L37.0901 89.7077Z" fill="#E1E6E9"/>
<path d="M135.395 23.5852L135.395 18.1241L138.994 15.2146L119.517 0L100.037 15.2161L107.803 21.812V25.6962V26.0019C107.824 25.986 107.85 25.9713 107.873 25.9552C107.79 26.122 107.736 26.2849 107.736 26.4558C107.736 28.3625 113.007 29.9168 119.517 29.9168C126.022 29.9168 131.299 28.3626 131.299 26.4559C131.299 26.285 131.242 26.1221 131.162 25.9551C131.185 25.9752 131.211 25.9858 131.232 26.0018V25.6962V21.8014L134.62 18.753V23.5852C134.25 23.8068 133.99 24.3436 133.99 24.9657C133.99 25.7882 134.445 26.4559 135.007 26.4559C135.574 26.4559 136.028 25.7882 136.028 24.9659C136.028 24.3436 135.769 23.8068 135.395 23.5852ZM119.517 28.6043C113.74 28.604 109.061 27.6402 109.061 26.4572C109.061 25.2742 113.74 24.3128 119.517 24.3131C125.29 24.313 129.972 25.2743 129.972 26.4572C129.972 27.6402 125.29 28.6042 119.517 28.6043ZM130.977 18.6289C130.201 17.4151 127.409 14.2293 119.517 14.2294C111.62 14.2293 108.832 17.4179 108.057 18.6328L108.057 17.4792C108.057 17.4792 110.318 12.5162 119.517 12.5164C128.715 12.5162 130.977 17.4794 130.977 17.4794L130.977 18.6289Z" fill="black"/>
<path d="M119.516 24.2764C113.764 24.2761 109.035 25.2261 109.035 26.4575C109.035 27.6887 113.764 28.6413 119.516 28.6416C125.266 28.6413 129.997 27.6888 129.997 26.4574C129.997 25.2263 125.266 24.2762 119.516 24.2764Z" fill="white"/>
<path d="M119.518 12.4922C110.314 12.4921 108.048 17.4579 108.045 17.4656C108.043 17.4695 108.042 17.4741 108.042 17.4787L108.042 18.6323C108.042 18.642 108.046 18.6509 108.052 18.6544C108.054 18.6555 108.056 18.6561 108.058 18.6561C108.063 18.6561 108.067 18.6534 108.07 18.6485C108.841 17.4396 111.624 14.2524 119.518 14.2527C127.407 14.2524 130.194 17.4371 130.966 18.6445C130.969 18.6496 130.973 18.6521 130.978 18.6521C130.98 18.6521 130.982 18.6516 130.984 18.6504C130.99 18.647 130.994 18.6382 130.994 18.6284L130.994 17.4788C130.994 17.4741 130.993 17.4695 130.991 17.4656C130.988 17.4581 128.72 12.4919 119.518 12.4922Z" fill="white"/>
<path d="M130.977 18.6291C130.201 17.4153 127.409 14.2295 119.517 14.2296C111.62 14.2295 108.833 17.4181 108.058 18.633L108.058 17.4794C108.058 17.4794 110.318 12.5164 119.517 12.5166C128.715 12.5164 130.977 17.4795 130.977 17.4795L130.977 18.6291Z" fill="black"/>
<path d="M135.395 23.5852L135.395 18.1241L138.994 15.2146L119.517 0L100.037 15.2161L107.803 21.812V25.6962V26.0019C107.824 25.986 107.85 25.9713 107.873 25.9552C107.79 26.122 107.736 26.2849 107.736 26.4558C107.736 28.3625 113.007 29.9168 119.517 29.9168C126.022 29.9168 131.299 28.3626 131.299 26.4559C131.299 26.285 131.242 26.1221 131.162 25.9551C131.185 25.9752 131.211 25.9858 131.232 26.0018V25.6962V21.8014L134.62 18.753V23.5852C134.25 23.8068 133.99 24.3436 133.99 24.9657C133.99 25.7882 134.445 26.4559 135.007 26.4559C135.574 26.4559 136.028 25.7882 136.028 24.9659C136.028 24.3436 135.769 23.8068 135.395 23.5852ZM119.517 28.6043C113.74 28.604 109.061 27.6402 109.061 26.4572C109.061 25.2742 113.74 24.3128 119.517 24.3131C125.29 24.313 129.972 25.2743 129.972 26.4572C129.972 27.6402 125.29 28.6042 119.517 28.6043Z" fill="black"/>
<path d="M119.516 24.2764C113.764 24.2761 109.035 25.2261 109.035 26.4575C109.035 27.6887 113.764 28.6413 119.516 28.6416C125.266 28.6413 129.997 27.6888 129.997 26.4574C129.997 25.2263 125.266 24.2762 119.516 24.2764Z" fill="#222B32"/>
<path d="M119.518 12.4922C110.314 12.4921 108.048 17.4579 108.045 17.4656C108.043 17.4695 108.042 17.4741 108.042 17.4787L108.042 18.6323C108.042 18.642 108.046 18.6509 108.052 18.6544C108.054 18.6555 108.056 18.6561 108.058 18.6561C108.063 18.6561 108.067 18.6534 108.07 18.6485C108.841 17.4396 111.624 14.2524 119.518 14.2527C127.407 14.2524 130.194 17.4371 130.966 18.6445C130.969 18.6496 130.973 18.6521 130.978 18.6521C130.98 18.6521 130.982 18.6516 130.984 18.6504C130.99 18.647 130.994 18.6382 130.994 18.6284L130.994 17.4788C130.994 17.4741 130.993 17.4695 130.991 17.4656C130.988 17.4581 128.72 12.4919 119.518 12.4922Z" fill="#FF0000"/>
<path d="M135.44 18.0625L134.621 18.7209V23.3751C134.23 23.6093 133.955 24.1764 133.955 24.8339C133.955 25.7028 134.436 26.4084 135.03 26.4084C135.629 26.4084 136.109 25.7031 136.109 24.8339C136.109 24.1765 135.835 23.6093 135.44 23.3751L135.44 18.0625Z" fill="#FCB826"/>
<path d="M99.0967 27.667L121.229 27.6671L143.361 27.6674C143.361 31.5272 143.361 35.3872 143.361 39.2472C128.606 39.2473 113.851 39.2475 99.0967 39.2477C99.0967 35.3873 99.0967 31.5271 99.0967 27.667Z" fill="white"/>
<path d="M99.0791 29.0967H121.211L143.343 29.097C143.343 32.5008 143.343 35.9047 143.343 39.3086C128.589 39.3088 113.834 39.3089 99.0791 39.3091C99.0791 35.9048 99.0791 32.5007 99.0791 29.0967Z" fill="white"/>
<path d="M99.0791 36.1309C99.0791 37.1902 99.0791 38.2495 99.0791 39.3089C105.052 39.3088 111.024 39.3088 116.997 39.3087C118.053 39.3087 119.109 39.3087 120.165 39.3087L120.168 39.3092C120.174 39.7135 120.178 40.34 120.181 41.2008L123.229 41.2015C123.234 40.2937 123.238 39.7143 123.243 39.3475C123.262 39.3676 123.277 39.3855 123.29 39.4011C123.335 39.4527 123.39 39.4983 123.425 39.4983C123.427 39.4983 123.43 39.4978 123.432 39.4977C123.439 39.4965 123.446 39.4937 123.452 39.4872C123.459 39.4806 123.463 39.4715 123.465 39.4659C123.474 39.4424 123.481 39.3867 123.485 39.3087L123.482 39.3092C124.667 39.3089 125.851 39.3086 127.034 39.3085L127.032 39.3091C132.462 39.3088 137.893 39.3086 143.325 39.3085L143.343 39.3089C143.343 39.2879 143.343 39.267 143.343 39.2462C143.355 38.2077 143.361 37.1692 143.361 36.1309H120.701H99.0791ZM127.031 39.3085C125.849 39.3086 124.667 39.3087 123.485 39.3087C124.666 39.3084 125.848 39.3086 127.029 39.3085H127.031ZM121.357 40.0318C121.357 40.0318 121.357 40.0313 121.357 40.0318V40.0318Z" fill="#DFD9D9" fill-opacity="0.286275"/>
<path d="M125.132 35.0133L125.158 35.021C125.158 35.0229 125.158 35.0247 125.157 35.0261L125.132 35.0133L125.131 35.0136C125.131 35.0135 125.131 35.0138 125.131 35.0136L125.132 35.0133ZM121.622 30.1827C121.906 30.1827 122.389 30.2742 122.532 30.365L122.532 30.3655C122.548 30.3745 122.564 30.3842 122.586 30.3982C122.616 30.416 122.655 30.4399 122.691 30.4615C122.722 30.4798 122.76 30.5032 122.789 30.5198C122.931 30.6062 123.077 30.7324 123.342 31.0008C123.643 31.3079 124.089 32.2702 124.19 32.8308C124.209 32.943 124.245 33.1238 124.272 33.2398C124.304 33.391 124.313 33.5837 124.304 34.0636C124.295 34.6038 124.28 34.7365 124.209 35.0489C124.02 35.867 123.731 36.491 123.301 36.9887C123.186 37.1232 123.086 37.2251 123.064 37.2362H123.064C123.062 37.2362 123.061 37.2367 123.06 37.2371C123.034 37.2444 122.957 37.3042 122.885 37.3646L122.885 37.3651C122.805 37.4337 122.662 37.5253 122.565 37.5684C122.465 37.6083 122.358 37.6661 122.325 37.6901C122.247 37.749 121.984 37.7909 121.722 37.7909C121.607 37.7909 121.494 37.7827 121.4 37.7656L121.399 37.7654C121.241 37.74 121.106 37.7037 121.081 37.6885L121.081 37.6886C121.059 37.6651 120.979 37.6242 120.906 37.5945C120.762 37.5353 120.37 37.2618 120.327 37.2008H120.326C120.325 37.1955 120.322 37.1915 120.321 37.1883C120.304 37.1603 120.245 37.1077 120.191 37.0643L120.19 37.0634C120.073 36.9796 119.597 36.2717 119.527 36.0794C119.503 36.0131 119.455 35.8777 119.421 35.7803L119.421 35.7796C119.194 35.1466 119.132 34.7517 119.132 33.9459C119.135 33.3914 119.174 32.9922 119.25 32.7258C119.343 32.3897 119.423 32.1361 119.44 32.0997C119.441 32.0988 119.441 32.0984 119.442 32.097C119.455 32.0771 119.48 32.0106 119.503 31.9485L119.503 31.9479C119.618 31.62 120.108 30.9027 120.332 30.7346L120.333 30.7342C120.375 30.7012 120.42 30.6641 120.434 30.6458C120.435 30.6451 120.435 30.6448 120.435 30.6447C120.454 30.6226 120.62 30.5134 120.863 30.3616C120.912 30.3364 121.052 30.2884 121.174 30.262C121.251 30.2457 121.315 30.2314 121.379 30.2172C121.418 30.2085 121.449 30.2018 121.468 30.1977C121.475 30.1961 121.469 30.1972 121.476 30.1961L121.477 30.1958C121.511 30.187 121.561 30.1827 121.622 30.1827ZM121.291 27.8828C121.279 27.8828 121.269 27.8913 121.262 27.8998C121.243 27.9239 121.233 27.9691 121.233 28.0118C121.233 28.0376 121.229 28.0553 121.226 28.0624L121.226 28.0627C121.217 28.0678 121.212 28.0777 121.211 28.079C121.19 28.1155 121.151 28.2711 121.114 28.4407L121.114 28.4418C121.076 28.6321 121.038 28.7827 121.027 28.8044L121.026 28.8046C121.025 28.8055 121.024 28.8063 121.024 28.8074C121.002 28.8382 120.979 28.9325 120.963 29.0152C120.94 29.1368 120.923 29.1523 120.914 29.1523C120.899 29.1523 120.867 29.1238 120.808 29.0296C120.706 28.8725 120.293 28.3248 120.242 28.2863C120.241 28.2854 120.234 28.2801 120.226 28.2801C120.203 28.2801 120.197 28.3166 120.197 28.3166C120.189 28.3647 120.176 28.6033 120.165 28.8785C120.153 29.1963 120.129 29.4897 120.111 29.5421L120.11 29.5449L120.089 29.6219L119.89 29.4632L119.889 29.4626C119.595 29.2306 119.346 29.0454 119.306 29.032C119.305 29.0317 119.305 29.0314 119.304 29.0313L119.304 29.0314L119.297 29.0303L119.297 29.0304L119.281 29.038C119.269 29.0496 119.268 29.0701 119.268 29.0701C119.263 29.117 119.279 29.35 119.306 29.615C119.318 29.7384 119.329 29.8441 119.339 29.9409C119.345 29.9992 119.352 30.0689 119.356 30.1035C119.357 30.1204 119.359 30.1346 119.36 30.1461C119.296 30.1406 119.151 30.0885 119.121 30.0575C119.12 30.0562 119.118 30.0547 119.117 30.0537C119.075 30.0155 118.715 29.8716 118.654 29.8687H118.653L118.652 29.8684H118.651L118.647 29.8689C118.625 29.8736 118.619 29.9032 118.618 29.9118C118.615 29.9306 118.617 29.955 118.619 29.9778C118.627 30.0574 118.656 30.1878 118.689 30.2618C118.707 30.3109 118.753 30.4644 118.788 30.6067C118.824 30.7515 118.868 30.8929 118.882 30.9241L118.884 30.9284C118.904 30.9674 118.98 31.2903 118.997 31.3975L118.996 31.3977C118.956 31.4051 118.862 31.4123 118.748 31.4123C118.591 31.4123 118.34 31.4256 118.188 31.4388L118.188 31.4389L117.916 31.4697C117.906 31.4709 117.897 31.4806 117.893 31.4946C117.889 31.5088 117.891 31.5249 117.898 31.5364L118.127 31.9291C118.254 32.1407 118.347 32.336 118.353 32.3737C118.351 32.391 118.33 32.4178 118.193 32.4632C117.815 32.5887 117.695 32.6286 117.664 32.6764C117.66 32.6836 117.656 32.692 117.654 32.7017L117.653 32.7047C117.65 32.7223 117.656 32.7374 117.657 32.7415C117.683 32.8156 117.933 33.1185 118.007 33.1664L118.007 33.1666C118.054 33.1954 118.306 33.4946 118.361 33.5792L118.36 33.5794C118.346 33.5959 118.32 33.6214 118.287 33.644L118.286 33.6445C118.241 33.6779 118.145 33.7535 118.046 33.8319L117.975 33.8877C117.974 33.8879 117.974 33.8888 117.973 33.8896C117.859 33.9861 117.709 34.1038 117.645 34.1468L117.644 34.1474L117.523 34.2357C117.513 34.2428 117.507 34.2576 117.508 34.2734C117.508 34.2891 117.515 34.3031 117.525 34.3094L117.676 34.4019L117.68 34.4045C117.734 34.4386 117.708 34.4219 117.769 34.4603C117.787 34.4718 117.866 34.5214 117.886 34.5332C117.925 34.5581 117.96 34.5801 117.992 34.6003C118.082 34.6574 118.201 34.729 118.257 34.7561C118.378 34.8223 118.385 34.8521 118.376 34.8885C118.363 34.9377 118.317 35.0116 118.225 35.1381C117.888 35.6001 117.791 35.7305 117.785 35.8034C117.784 35.8181 117.786 35.8316 117.789 35.8431C117.793 35.8539 117.797 35.8623 117.801 35.8685C117.803 35.8717 117.805 35.875 117.807 35.8771C117.84 35.9172 117.964 35.9502 118.085 35.9668H118.086C118.39 36.0033 118.477 36.0342 118.488 36.0604L118.488 36.0606C118.481 36.0935 118.435 36.2111 118.373 36.3396C118.312 36.4611 118.257 36.587 118.249 36.624C118.248 36.6269 118.247 36.6332 118.247 36.6402L118.246 36.6404C118.24 36.6618 118.214 36.724 118.177 36.7926C118.14 36.8635 118.105 36.9373 118.098 36.9665C118.098 36.9697 118.096 36.9769 118.096 36.9851C118.096 37.0193 118.12 37.0289 118.12 37.0289C118.138 37.0374 118.182 37.0397 118.234 37.0397C118.457 37.0397 118.964 36.9939 119.021 36.9591C119.023 36.9578 119.027 36.9549 119.031 36.9504L119.033 36.9477C119.041 36.9376 119.081 36.9199 119.128 36.9199C119.164 36.9199 119.174 36.9221 119.178 36.9251L119.177 36.9252C119.177 36.9271 119.178 36.9317 119.178 36.9401C119.178 36.9634 119.174 36.999 119.167 37.0578C119.137 37.3182 119.068 37.71 119.034 37.8097L119.034 37.8104C119.004 37.9009 118.917 38.3746 118.918 38.4447C118.918 38.4466 118.918 38.4693 118.931 38.4824C118.938 38.4908 118.947 38.4916 118.95 38.4916C118.95 38.4916 118.951 38.4916 118.951 38.4916C118.951 38.4916 118.952 38.4916 118.953 38.4916C118.999 38.488 119.306 38.3294 119.344 38.2873C119.346 38.2856 119.348 38.2827 119.351 38.2787C119.367 38.2581 119.476 38.197 119.63 38.1318L119.663 38.1192L119.643 38.6153V38.6162C119.635 38.8864 119.634 39.1285 119.645 39.1788C119.645 39.1819 119.652 39.2124 119.673 39.2139H119.674C119.679 39.2138 119.682 39.2126 119.685 39.2117C119.709 39.202 119.783 39.1389 119.853 39.0659L119.86 39.0587L119.885 39.0338C119.885 39.0337 119.905 39.014 119.908 39.0115C120.074 38.849 120.128 38.7973 120.153 38.7805H120.154C120.17 39.0135 120.181 40.3837 120.183 43.0423L120.192 47.3528C120.193 47.3698 120.2 47.3851 120.211 47.3908C120.214 47.3925 120.217 47.3932 120.22 47.3932C120.228 47.3932 120.236 47.3879 120.242 47.3785L120.429 47.0476C120.531 46.8671 120.664 46.6424 120.723 46.546L120.724 46.5453C120.742 46.5151 120.776 46.4558 120.815 46.3895C120.88 46.2794 120.974 46.1187 121.06 45.9733C121.083 45.9347 121.09 45.9217 121.113 45.8836L121.113 45.883C121.267 45.6134 121.459 45.2841 121.541 45.1468C121.62 45.014 121.699 44.9171 121.721 44.9095H121.719L121.721 44.9092H121.722C121.735 44.9113 121.776 44.9592 121.811 45.0404C121.847 45.1237 121.905 45.2265 121.946 45.2542C121.972 45.2771 121.986 45.3033 121.987 45.3119C121.988 45.3228 121.991 45.3319 121.991 45.3328C122.026 45.4324 122.806 46.758 123.002 47.0587L123.003 47.0593C123.046 47.1223 123.071 47.1801 123.073 47.1958C123.073 47.1996 123.074 47.2037 123.074 47.2071C123.079 47.2442 123.105 47.2917 123.128 47.3214L123.129 47.3222C123.132 47.3268 123.14 47.3345 123.151 47.3345C123.17 47.3345 123.179 47.3124 123.182 47.3035C123.215 47.2078 123.22 46.4416 123.225 43.0293C123.233 39.649 123.24 38.8946 123.264 38.7626H123.265C123.303 38.7884 123.398 38.8723 123.498 38.9809L123.498 38.9813C123.608 39.0964 123.721 39.2017 123.755 39.2124C123.758 39.2133 123.761 39.2139 123.765 39.2139C123.783 39.2139 123.793 39.1948 123.797 39.1842C123.811 39.1486 123.815 39.0674 123.815 38.9736C123.815 38.8031 123.801 38.5453 123.777 38.2725L123.777 38.2719C123.769 38.1967 123.769 38.1418 123.771 38.1145L123.772 38.1146C123.841 38.1361 124.069 38.2517 124.095 38.2797C124.146 38.3367 124.458 38.4916 124.508 38.4917C124.508 38.4915 124.509 38.4917 124.509 38.4917C124.512 38.4917 124.522 38.4911 124.53 38.4815L124.513 38.45L124.532 38.4784C124.543 38.4635 124.542 38.4437 124.542 38.4394C124.541 38.4071 124.524 38.3439 124.504 38.2862L124.504 38.2844C124.479 38.2191 124.437 38.0384 124.41 37.8842C124.383 37.7249 124.34 37.5125 124.312 37.4078C124.263 37.2117 124.274 37.1822 124.298 37.1692C124.311 37.1621 124.332 37.1582 124.362 37.1582C124.389 37.1582 124.422 37.1614 124.462 37.1668C124.566 37.184 124.653 37.2086 124.669 37.2211C124.67 37.2226 124.671 37.224 124.673 37.225C124.719 37.2637 124.978 37.2963 125.105 37.2963C125.138 37.2963 125.17 37.2943 125.186 37.2859C125.187 37.2852 125.21 37.2751 125.21 37.2411C125.21 37.2343 125.209 37.228 125.208 37.225C125.201 37.1896 125.152 37.0706 125.1 36.9502C125.049 36.8357 125.008 36.7357 125 36.7059H124.999C124.999 36.6996 124.998 36.6944 124.997 36.6917C124.99 36.6545 124.935 36.5155 124.874 36.3767L124.874 36.3761C124.814 36.2421 124.769 36.1235 124.759 36.0872L124.758 36.0873C124.776 36.0659 124.863 36.044 125.201 35.9888C125.38 35.9582 125.563 35.9091 125.607 35.8794L125.608 35.8788C125.621 35.8695 125.637 35.8571 125.647 35.838C125.655 35.8229 125.659 35.8044 125.658 35.7837C125.657 35.7722 125.654 35.7609 125.65 35.7507C125.63 35.6912 125.557 35.5917 125.409 35.3937C125.284 35.2258 125.188 35.0761 125.163 35.0225H125.163C125.18 35.0049 125.222 34.9743 125.274 34.9511C125.347 34.9242 125.423 34.8787 125.449 34.8521C125.465 34.8346 125.56 34.7791 125.663 34.7345C125.761 34.6947 125.829 34.6554 125.848 34.6036C125.854 34.5884 125.856 34.5704 125.853 34.5521C125.852 34.5494 125.851 34.5468 125.851 34.5444C125.841 34.5048 125.818 34.4682 125.792 34.4587C125.789 34.4574 125.785 34.4567 125.782 34.4564L125.781 34.4567C125.765 34.4519 125.703 34.4003 125.63 34.3314C125.556 34.255 125.438 34.153 125.37 34.1034C125.235 34.0027 125.011 33.7717 124.972 33.705L124.971 33.7051C124.993 33.6535 125.113 33.4945 125.212 33.4065C125.369 33.2667 125.731 32.8112 125.759 32.7157L125.735 32.6999L125.734 32.7C125.734 32.6999 125.734 32.6997 125.734 32.6994L125.759 32.7157C125.761 32.7111 125.767 32.6896 125.759 32.6684C125.757 32.6651 125.756 32.662 125.754 32.6595C125.751 32.6549 125.748 32.652 125.746 32.6505C125.717 32.6255 125.56 32.566 125.39 32.5161C125.235 32.4659 125.108 32.4186 125.073 32.3963H125.072C125.077 32.3488 125.138 32.1956 125.227 32.0538L125.227 32.0527C125.263 31.9918 125.348 31.8497 125.414 31.74L125.535 31.5368C125.542 31.5251 125.544 31.5087 125.54 31.4944C125.536 31.4802 125.526 31.4706 125.516 31.4696L125.193 31.4432C125.018 31.4255 124.8 31.4122 124.709 31.4124C124.656 31.4124 124.612 31.4089 124.586 31.4047H124.585C124.603 31.3403 124.646 31.1999 124.698 31.0425C124.767 30.8259 124.854 30.555 124.891 30.4337C124.925 30.3295 124.946 30.2301 124.94 30.183C124.939 30.1733 124.935 30.1529 124.921 30.1422C124.92 30.1412 124.918 30.1404 124.918 30.1401L124.916 30.1392C124.913 30.1378 124.911 30.1373 124.909 30.137C124.905 30.1361 124.901 30.1358 124.897 30.1358C124.809 30.1358 124.334 30.2643 124.28 30.3138C124.278 30.315 124.277 30.3165 124.275 30.3178C124.246 30.3464 124.13 30.3769 124.058 30.3769C124.048 30.3769 124.041 30.3761 124.035 30.3754H124.034C124.041 30.2122 124.104 29.6602 124.122 29.5937C124.153 29.4862 124.189 29.1412 124.173 29.0681C124.172 29.0625 124.168 29.0426 124.154 29.034L124.154 29.0336C124.152 29.0326 124.15 29.0315 124.148 29.0309L124.139 29.03C124.138 29.0302 124.135 29.0307 124.134 29.0311C124.078 29.0472 123.621 29.3915 123.537 29.4786C123.51 29.5075 123.487 29.5245 123.473 29.5309C123.467 29.4629 123.46 29.2607 123.46 29.0221C123.46 28.7418 123.451 28.5166 123.431 28.4623C123.429 28.4566 123.425 28.4477 123.418 28.4412C123.411 28.4347 123.404 28.4317 123.397 28.4307C123.396 28.4305 123.393 28.4301 123.391 28.4301C123.355 28.4301 123.301 28.4756 123.256 28.5267L123.255 28.5274C123.107 28.7045 122.685 29.2197 122.606 29.3174L122.605 29.319C122.578 29.3564 122.567 29.3703 122.561 29.3746C122.558 29.3705 122.552 29.3609 122.541 29.3385C122.523 29.3005 122.473 29.1213 122.434 28.9309C122.396 28.7537 122.354 28.5775 122.338 28.5424C122.337 28.5418 122.337 28.5412 122.337 28.5408C122.327 28.5197 122.292 28.3903 122.259 28.2426C122.233 28.1169 122.194 27.9928 122.162 27.9606C122.157 27.9554 122.149 27.9489 122.139 27.9489C122.133 27.9489 122.127 27.9511 122.122 27.9537C122.088 27.9726 122.044 28.061 122.012 28.1466C121.976 28.2431 121.942 28.3239 121.935 28.3366C121.934 28.3376 121.933 28.3388 121.933 28.3392C121.92 28.3616 121.865 28.4863 121.81 28.617C121.75 28.7667 121.729 28.809 121.719 28.8157C121.716 28.8143 121.71 28.8087 121.696 28.7895L121.696 28.789C121.669 28.7532 121.652 28.7087 121.651 28.6955C121.651 28.6416 121.618 28.5958 121.59 28.5754L121.587 28.5738C121.571 28.5645 121.56 28.5413 121.56 28.5279C121.56 28.5243 121.56 28.5209 121.56 28.5184C121.555 28.4699 121.503 28.3386 121.449 28.2267C121.396 28.1153 121.355 28.0096 121.349 27.9809C121.349 27.9505 121.341 27.9175 121.322 27.8979C121.314 27.8883 121.303 27.8828 121.291 27.8828Z" fill="#F44336"/>
<path d="M121.75 30.375C121.453 30.375 121.134 30.4302 121.004 30.5318C120.954 30.5678 120.907 30.5931 120.893 30.5931L120.892 30.5934C120.844 30.5945 120.626 30.7343 120.594 30.781C120.584 30.7921 120.53 30.8365 120.465 30.8843C120.302 31.0029 119.749 31.8123 119.668 32.0495C119.635 32.1458 119.605 32.2254 119.597 32.2383C119.596 32.2403 119.595 32.2424 119.594 32.2437C119.58 32.27 119.541 32.3905 119.504 32.5148C119.5 32.5315 119.485 32.5811 119.48 32.5984C119.463 32.653 119.471 32.6254 119.456 32.6786C119.434 32.7529 119.415 32.8176 119.407 32.8478C119.32 33.144 119.288 34.2427 119.352 34.6574C119.392 34.9261 119.52 35.3981 119.606 35.5968C119.642 35.6793 119.689 35.8057 119.713 35.8789L119.713 35.8795C119.795 36.1232 120.295 36.8081 120.5 36.9654C120.599 37.0414 120.709 37.1123 120.743 37.1154C120.743 37.1154 120.745 37.1154 120.746 37.1154C120.764 37.1154 120.773 37.1293 120.774 37.1318C120.776 37.1438 120.782 37.152 120.785 37.1562C120.838 37.2263 121.256 37.3802 121.385 37.3802C121.435 37.3802 121.472 37.3957 121.48 37.4054C121.484 37.4149 121.489 37.4208 121.493 37.424C121.523 37.4512 121.62 37.4683 121.714 37.4683C121.808 37.4683 121.905 37.4512 121.935 37.424C121.939 37.4209 121.944 37.4155 121.948 37.4063C121.956 37.3956 121.999 37.3802 122.058 37.3802C122.232 37.3802 122.605 37.2232 122.812 37.0623C123.273 36.7146 123.752 35.9934 123.908 35.4135C123.94 35.2998 123.97 35.2014 123.981 35.1844L123.983 35.1812C124.05 35.0575 124.113 34.4146 124.116 33.943C124.116 33.3496 124.073 32.9455 123.968 32.6112C123.931 32.4886 123.902 32.3842 123.899 32.3588C123.899 32.3527 123.898 32.3475 123.897 32.3441C123.89 32.3039 123.841 32.1846 123.788 32.0716L123.788 32.071C123.737 31.9623 123.697 31.8704 123.688 31.8425H123.687C123.686 31.8313 123.682 31.8223 123.681 31.8209C123.668 31.7915 123.567 31.6375 123.453 31.4697C123.177 31.0703 122.863 30.7527 122.604 30.6219C122.499 30.5678 122.407 30.5169 122.393 30.503L122.377 30.5367L122.392 30.5018C122.391 30.5016 122.39 30.5007 122.389 30.4999C122.367 30.4825 122.267 30.4472 122.174 30.4219C122.055 30.3899 121.904 30.375 121.75 30.375Z" fill="#F44336"/>
<path d="M125.164 32.9126L125.19 32.9047C125.19 32.903 125.19 32.9012 125.189 32.8999L125.164 32.9126L125.163 32.9123C125.163 32.9121 125.163 32.9124 125.163 32.9123L125.164 32.9126ZM121.656 37.7455C121.939 37.7454 122.422 37.6535 122.565 37.5627L122.566 37.5624C122.581 37.553 122.597 37.5434 122.62 37.5294C122.649 37.5115 122.689 37.4877 122.725 37.4659C122.755 37.4477 122.794 37.4243 122.822 37.4076C122.964 37.321 123.11 37.1949 123.375 36.9263C123.677 36.6186 124.122 35.6563 124.223 35.0959C124.241 34.9836 124.277 34.8029 124.305 34.6869C124.336 34.5357 124.345 34.3431 124.336 33.8631C124.327 33.3225 124.312 33.1903 124.241 32.8777C124.052 32.0595 123.762 31.4357 123.332 30.9386C123.217 30.8041 123.117 30.7022 123.096 30.6912L123.095 30.6911C123.093 30.6909 123.092 30.6906 123.091 30.6905C123.065 30.6834 122.988 30.6233 122.916 30.5628C122.837 30.4942 122.694 30.4024 122.596 30.3593C122.496 30.3197 122.389 30.2615 122.356 30.2377C122.278 30.1788 122.015 30.1371 121.753 30.1374C121.638 30.1374 121.525 30.1457 121.431 30.1629L121.43 30.163C121.272 30.1886 121.138 30.2249 121.112 30.2401L121.112 30.2399C121.09 30.2636 121.01 30.3044 120.938 30.3342C120.793 30.3936 120.401 30.6674 120.358 30.7283L120.358 30.7282C120.356 30.7336 120.354 30.7377 120.352 30.7408C120.336 30.7688 120.277 30.8215 120.223 30.8649L120.221 30.8658C120.104 30.9498 119.628 31.6581 119.558 31.8505C119.534 31.9168 119.487 32.0523 119.453 32.1498C119.227 32.7832 119.164 33.1785 119.164 33.9843C119.167 34.539 119.207 34.938 119.283 35.2042C119.376 35.5401 119.456 35.7939 119.473 35.8301L119.473 35.83L119.473 35.8307C119.474 35.8316 119.474 35.8316 119.475 35.833C119.487 35.8531 119.513 35.9194 119.536 35.9814L119.536 35.9821C119.651 36.3098 120.142 37.0266 120.366 37.1947L120.366 37.195C120.408 37.2279 120.454 37.2649 120.468 37.2833C120.468 37.2843 120.468 37.2844 120.468 37.2847C120.487 37.3065 120.653 37.4156 120.897 37.5671C120.945 37.5924 121.085 37.6403 121.208 37.6665C121.284 37.6827 121.348 37.697 121.413 37.7112C121.451 37.7199 121.482 37.7268 121.502 37.7308C121.509 37.7323 121.503 37.7312 121.51 37.7324L121.51 37.7325C121.545 37.7414 121.595 37.7455 121.656 37.7455ZM121.325 40.0456C121.313 40.0456 121.303 40.0375 121.296 40.0288C121.277 40.0046 121.267 39.9594 121.267 39.9168C121.267 39.891 121.263 39.8732 121.261 39.866H121.26C121.251 39.8609 121.246 39.8511 121.245 39.8494C121.224 39.8132 121.185 39.6576 121.148 39.488L121.148 39.487C121.11 39.2967 121.072 39.1461 121.061 39.1242L121.06 39.124C121.059 39.1233 121.059 39.1224 121.058 39.1214C121.036 39.0903 121.013 38.9962 120.997 38.9133C120.974 38.7921 120.957 38.7766 120.948 38.7766C120.933 38.7766 120.901 38.8051 120.842 38.8993C120.74 39.0562 120.327 39.6046 120.277 39.6429C120.275 39.6436 120.269 39.6493 120.26 39.6493C120.238 39.6493 120.231 39.6126 120.231 39.6126C120.223 39.5645 120.21 39.326 120.199 39.0508C120.187 38.7329 120.163 38.4396 120.145 38.3872L120.144 38.3844L120.122 38.3075L119.924 38.4665L119.923 38.4671C119.629 38.6993 119.38 38.8847 119.34 38.8981C119.339 38.8984 119.339 38.8985 119.338 38.8987H119.338L119.331 38.8997L119.331 38.8996L119.314 38.8922C119.303 38.8804 119.302 38.8599 119.302 38.8599C119.297 38.813 119.313 38.5801 119.34 38.3152C119.352 38.1918 119.363 38.0859 119.373 37.9891C119.379 37.9308 119.386 37.861 119.389 37.8266C119.391 37.8098 119.392 37.7953 119.393 37.7839C119.33 37.7894 119.184 37.8419 119.155 37.8726C119.153 37.874 119.152 37.8756 119.151 37.8765C119.109 37.9147 118.748 38.0588 118.687 38.0617H118.687L118.685 38.062H118.685L118.68 38.0617C118.659 38.0569 118.653 38.0274 118.652 38.0188C118.649 37.9999 118.65 37.9754 118.653 37.9528C118.661 37.8732 118.689 37.7425 118.722 37.6685C118.74 37.6194 118.787 37.4661 118.822 37.3239C118.858 37.1789 118.901 37.0376 118.915 37.0064L118.918 37.0019C118.937 36.9628 119.013 36.6399 119.03 36.5328H119.03C118.989 36.5254 118.895 36.5181 118.781 36.5181C118.624 36.5181 118.373 36.5051 118.222 36.4918H118.221L117.95 36.4612C117.939 36.46 117.93 36.4502 117.926 36.4363C117.922 36.4221 117.924 36.406 117.931 36.3944L118.16 36.0016C118.287 35.7899 118.38 35.5946 118.385 35.5569C118.383 35.5397 118.363 35.5128 118.226 35.4674C117.848 35.3421 117.728 35.3024 117.697 35.2546C117.693 35.2473 117.689 35.2391 117.687 35.2293L117.686 35.2263C117.683 35.2088 117.688 35.1936 117.69 35.1895C117.716 35.1157 117.965 34.8123 118.04 34.7643C118.086 34.7354 118.338 34.436 118.393 34.3513L118.393 34.3512C118.379 34.3347 118.352 34.3092 118.319 34.2865L118.319 34.2861C118.273 34.2528 118.177 34.1771 118.078 34.0989L118.007 34.043C118.007 34.0429 118.006 34.042 118.005 34.0412C117.891 33.9448 117.742 33.8271 117.677 33.7844L117.676 33.7837L117.555 33.6955C117.546 33.6884 117.54 33.6737 117.54 33.6579C117.54 33.6421 117.547 33.628 117.557 33.6219L117.708 33.529L117.712 33.5267C117.766 33.4925 117.74 33.5091 117.801 33.4706C117.819 33.4594 117.899 33.4095 117.918 33.3976C117.957 33.3728 117.992 33.3506 118.024 33.3305C118.115 33.2731 118.233 33.2017 118.289 33.1745C118.41 33.1081 118.417 33.0785 118.408 33.0421C118.395 32.9928 118.349 32.9192 118.257 32.7928C117.92 32.3309 117.823 32.2005 117.817 32.1275C117.816 32.1128 117.818 32.0995 117.821 32.088C117.824 32.0772 117.829 32.0687 117.833 32.0624C117.834 32.0592 117.837 32.056 117.839 32.0538C117.871 32.0137 117.996 31.9805 118.117 31.9641H118.117L118.118 31.9638C118.421 31.9271 118.509 31.8964 118.52 31.87H118.519C118.513 31.8371 118.467 31.7195 118.404 31.591C118.343 31.4695 118.288 31.3439 118.28 31.3069C118.28 31.3039 118.278 31.2975 118.278 31.2905L118.278 31.2903C118.271 31.2687 118.245 31.2066 118.209 31.1381C118.171 31.0673 118.137 30.9934 118.13 30.9643C118.129 30.9611 118.127 30.954 118.127 30.9458C118.127 30.9114 118.151 30.9017 118.151 30.9017C118.17 30.8932 118.214 30.891 118.265 30.891C118.489 30.8909 118.995 30.9364 119.052 30.9712C119.055 30.9725 119.059 30.9755 119.063 30.9799L119.065 30.9826C119.072 30.9926 119.112 31.0104 119.16 31.0104C119.196 31.0104 119.206 31.0082 119.209 31.0051L119.208 31.0049C119.209 31.0029 119.209 30.9984 119.209 30.9901C119.209 30.9671 119.205 30.9311 119.199 30.8725C119.168 30.6121 119.099 30.2203 119.065 30.1205L119.065 30.1199C119.035 30.0295 118.948 29.5558 118.949 29.4856C118.949 29.4837 118.949 29.4612 118.962 29.448C118.969 29.4396 118.978 29.4387 118.981 29.4387C118.981 29.4387 118.982 29.4387 118.981 29.4387C118.982 29.4387 118.983 29.4387 118.984 29.4387C119.03 29.4421 119.337 29.6006 119.375 29.6427C119.377 29.6446 119.379 29.6473 119.382 29.6513C119.398 29.672 119.507 29.7329 119.661 29.7981L119.694 29.8105L119.674 29.3146L119.674 29.3137C119.666 29.0433 119.665 28.8013 119.675 28.751C119.676 28.7479 119.682 28.7173 119.704 28.716H119.705C119.709 28.7161 119.713 28.7173 119.715 28.718C119.74 28.7277 119.814 28.7908 119.883 28.8639L119.891 28.871L119.916 28.8957C119.916 28.8957 119.936 28.9155 119.939 28.9182C120.104 29.0803 120.159 29.1322 120.184 29.1488H120.185C120.201 28.9159 120.211 27.5454 120.213 24.8868L120.22 20.5765C120.22 20.5594 120.228 20.5443 120.239 20.5385C120.242 20.5369 120.245 20.5361 120.248 20.5361C120.256 20.5361 120.264 20.5413 120.27 20.5508L120.457 20.8816C120.559 21.0618 120.692 21.2867 120.752 21.3829L120.752 21.3836C120.77 21.4139 120.805 21.4729 120.844 21.5394C120.908 21.6493 121.002 21.8099 121.088 21.9553C121.111 21.9941 121.119 22.0069 121.141 22.0451L121.142 22.0457C121.296 22.3151 121.488 22.6441 121.57 22.7815C121.649 22.9144 121.728 23.011 121.749 23.0188L121.748 23.0186L121.75 23.0189H121.751C121.764 23.017 121.804 22.969 121.839 22.8877C121.875 22.8043 121.933 22.7014 121.975 22.6739C122 22.6509 122.015 22.6248 122.016 22.6161C122.016 22.605 122.02 22.596 122.02 22.5953C122.055 22.496 122.834 21.1694 123.031 20.8687L123.031 20.8681C123.074 20.8049 123.099 20.7472 123.101 20.7316C123.101 20.7276 123.102 20.7236 123.102 20.7203C123.107 20.6832 123.133 20.6357 123.156 20.606L123.157 20.6052C123.16 20.6006 123.168 20.5927 123.179 20.5927C123.198 20.5927 123.207 20.6148 123.21 20.6236C123.243 20.7194 123.248 21.4856 123.255 24.8979C123.264 28.2781 123.27 29.0325 123.295 29.1646L123.296 29.1645C123.334 29.1388 123.428 29.0548 123.528 28.9461L123.529 28.9458C123.638 28.8304 123.751 28.7252 123.786 28.7144C123.789 28.7135 123.792 28.7129 123.795 28.7129C123.813 28.7129 123.823 28.732 123.828 28.7427C123.842 28.7782 123.846 28.8594 123.846 28.9532C123.846 29.1235 123.832 29.3816 123.808 29.6543L123.808 29.6549C123.8 29.7301 123.8 29.7849 123.802 29.8124H123.803C123.872 29.7906 124.1 29.6748 124.126 29.647C124.177 29.5899 124.489 29.4349 124.539 29.4346C124.539 29.4348 124.539 29.4346 124.54 29.4346C124.543 29.4346 124.553 29.4352 124.561 29.445L124.544 29.4767L124.563 29.448C124.573 29.463 124.573 29.4829 124.573 29.4872C124.572 29.5193 124.555 29.5826 124.535 29.6403L124.535 29.6421C124.509 29.7075 124.468 29.8881 124.441 30.0423C124.414 30.2017 124.372 30.414 124.344 30.5187C124.294 30.7149 124.306 30.7443 124.33 30.7573C124.342 30.7644 124.363 30.7684 124.393 30.7684C124.42 30.7684 124.453 30.7653 124.493 30.7597C124.597 30.7423 124.685 30.7177 124.7 30.7053C124.701 30.7036 124.703 30.7024 124.704 30.7014C124.75 30.6627 125.01 30.6297 125.136 30.6297C125.17 30.6297 125.201 30.6315 125.217 30.64C125.218 30.6407 125.241 30.6508 125.241 30.6848C125.241 30.6917 125.24 30.6979 125.24 30.7008C125.233 30.7365 125.184 30.8553 125.132 30.9757L125.131 30.9763C125.08 31.0907 125.04 31.1902 125.031 31.2203L125.03 31.2201C125.03 31.2265 125.029 31.2317 125.029 31.2343C125.021 31.2719 124.967 31.4105 124.905 31.5495C124.846 31.6837 124.8 31.8028 124.79 31.8389H124.79C124.808 31.8603 124.895 31.8823 125.232 31.9371C125.412 31.9676 125.595 32.0164 125.639 32.0462L125.64 32.0468C125.652 32.0562 125.669 32.0685 125.679 32.0876C125.687 32.1027 125.691 32.1213 125.689 32.1419C125.688 32.1534 125.686 32.1645 125.682 32.1749C125.662 32.2345 125.588 32.3339 125.441 32.5322C125.316 32.7004 125.22 32.8497 125.195 32.9036L125.194 32.9034C125.212 32.921 125.254 32.9517 125.306 32.9749C125.379 33.0017 125.455 33.0471 125.481 33.0737C125.497 33.0912 125.592 33.1465 125.695 33.191C125.793 33.2307 125.861 33.2701 125.88 33.3218C125.886 33.3371 125.888 33.3549 125.885 33.3733C125.884 33.3761 125.884 33.3786 125.883 33.381C125.873 33.4206 125.85 33.4571 125.824 33.4667C125.821 33.4682 125.818 33.4687 125.814 33.469L125.813 33.4689C125.797 33.4736 125.736 33.5252 125.662 33.5941C125.589 33.6704 125.47 33.7729 125.402 33.8223C125.267 33.9232 125.044 34.1544 125.004 34.2212L125.003 34.221C125.025 34.2728 125.146 34.4312 125.244 34.5193C125.402 34.6591 125.764 35.1144 125.792 35.2097L125.768 35.2255L125.767 35.2252C125.767 35.2257 125.767 35.2259 125.767 35.226L125.792 35.2097C125.794 35.2142 125.8 35.2359 125.791 35.2572C125.79 35.2605 125.788 35.2635 125.787 35.2659C125.784 35.2705 125.78 35.2735 125.779 35.2751C125.75 35.2999 125.593 35.3596 125.423 35.4097C125.268 35.46 125.14 35.5073 125.106 35.5298L125.105 35.5296C125.11 35.5773 125.171 35.7303 125.26 35.8722L125.26 35.8732C125.296 35.934 125.381 36.0762 125.447 36.1858L125.568 36.3889C125.575 36.4004 125.577 36.4168 125.573 36.4312C125.569 36.4454 125.559 36.455 125.549 36.4559L125.226 36.4826C125.051 36.5006 124.833 36.5139 124.742 36.514C124.689 36.514 124.645 36.5176 124.619 36.5218L124.618 36.5217C124.637 36.586 124.679 36.7264 124.731 36.8839C124.8 37.1 124.887 37.3711 124.924 37.4924C124.958 37.5964 124.98 37.6959 124.974 37.743C124.973 37.7528 124.969 37.7732 124.955 37.7839C124.953 37.785 124.952 37.7856 124.952 37.7859L124.95 37.7868C124.947 37.7883 124.945 37.7888 124.943 37.7892C124.939 37.7902 124.934 37.7902 124.93 37.7902C124.843 37.7902 124.368 37.6624 124.313 37.6128C124.312 37.6116 124.31 37.6101 124.309 37.6087C124.279 37.5803 124.164 37.5497 124.092 37.5498C124.082 37.5498 124.074 37.5505 124.068 37.5514L124.068 37.5513C124.074 37.7145 124.137 38.2663 124.156 38.3329C124.187 38.4405 124.222 38.7855 124.207 38.8585C124.206 38.8639 124.202 38.8838 124.188 38.8926C124.186 38.8937 124.184 38.8949 124.182 38.8956L124.173 38.8965C124.172 38.8963 124.169 38.8959 124.168 38.8954C124.112 38.8794 123.655 38.5353 123.571 38.4483C123.544 38.4195 123.521 38.4026 123.507 38.3962C123.501 38.4641 123.494 38.6664 123.494 38.9051C123.495 39.1853 123.485 39.4103 123.465 39.4648C123.463 39.4704 123.459 39.4794 123.452 39.4859C123.445 39.4924 123.438 39.4954 123.432 39.4964C123.43 39.4965 123.427 39.497 123.425 39.497C123.39 39.497 123.335 39.4516 123.29 39.4006L123.289 39.3998C123.141 39.2227 122.719 38.7077 122.64 38.6102L122.639 38.6086C122.612 38.5711 122.6 38.5574 122.595 38.5529C122.592 38.5572 122.586 38.5669 122.575 38.5892C122.557 38.6272 122.507 38.8065 122.468 38.9969C122.43 39.1743 122.388 39.3504 122.372 39.3855C122.371 39.3861 122.371 39.3865 122.371 39.3871C122.361 39.4079 122.327 39.5376 122.293 39.6854C122.267 39.8112 122.229 39.9351 122.197 39.9674C122.191 39.9725 122.183 39.9789 122.173 39.9789C122.167 39.9789 122.161 39.9767 122.157 39.9743C122.123 39.9552 122.078 39.8671 122.046 39.7814C122.01 39.6849 121.977 39.6041 121.969 39.5916C121.968 39.5905 121.967 39.5892 121.967 39.5889C121.954 39.5665 121.899 39.4417 121.844 39.3112C121.784 39.1616 121.763 39.1192 121.753 39.1125C121.75 39.114 121.744 39.1196 121.73 39.1387L121.73 39.1393C121.703 39.1751 121.686 39.2196 121.685 39.2328C121.685 39.2866 121.652 39.3323 121.624 39.3529L121.621 39.3547C121.605 39.3637 121.594 39.3869 121.594 39.4006C121.594 39.4039 121.594 39.4074 121.594 39.41C121.589 39.4584 121.537 39.5897 121.484 39.7018C121.43 39.8132 121.389 39.919 121.384 39.9475C121.384 39.9778 121.375 40.011 121.357 40.0305C121.348 40.0401 121.337 40.0456 121.325 40.0456Z" fill="#F44336"/>
</svg>
