<svg width="109" height="91" viewBox="0 0 109 91" fill="none" xmlns="http://www.w3.org/2000/svg">
<path d="M95.372 90.7454C102.502 90.7454 108.286 85.9416 108.286 80.0057V11.515C108.286 5.57326 102.502 0.757812 95.372 0.757812H13.1889C6.06641 0.757812 0.282227 5.57253 0.282227 11.515V80.0065C0.282227 85.9424 6.06641 90.7461 13.1898 90.7461L95.372 90.7454Z" fill="#7F7F7F"/>
<path d="M53.9606 28.1321C60.5166 28.1321 65.8095 23.6925 65.8095 18.2345C65.8095 12.7707 60.5166 8.35449 53.9606 8.35449C47.4045 8.35449 42.1055 12.7707 42.1055 18.2345C42.1046 23.6925 47.4045 28.1321 53.9606 28.1321Z" fill="white"/>
<path d="M65.4879 30.5398C70.9102 30.6993 73.1908 34.3193 73.1908 34.3193L90.6937 54.3365C91.4175 55.2246 91.8406 56.3115 91.8406 57.4837C91.8406 60.5966 88.8152 63.1238 85.08 63.1238C84.1857 63.1238 83.3728 62.9584 82.6009 62.7144L72.0361 60.2557V69.0429H35.3571V60.2549L24.7923 62.7137C24.0475 62.9584 23.2084 63.1231 22.3062 63.1231C18.571 63.1231 15.5518 60.5959 15.5518 57.483C15.5518 56.3108 15.9687 55.2231 16.7266 54.3358L34.2164 34.3186C34.2164 34.3186 36.511 30.6986 41.9132 30.5391L65.4879 30.5398ZM53.701 62.9074L67.3865 59.117L67.0858 59.066C57.6346 56.7552 61.3086 46.3514 70.7397 48.6731L72.0369 49.049V37.3069L53.701 42.2979L35.358 37.3062V49.0476L36.6491 48.6716C46.0942 46.3492 49.7752 56.7537 40.3231 59.0646L40.0154 59.1156L53.701 62.9074Z" fill="white"/>
<path d="M91.3733 75.9624C92.3087 75.9624 93.0604 75.3366 93.0604 74.5564C93.0604 73.7711 92.3095 73.1504 91.3733 73.1504H17.3512C16.4359 73.1504 15.6641 73.7711 15.6641 74.5564C15.6641 75.3359 16.4359 75.9624 17.3512 75.9624H91.3733Z" fill="white"/>
</svg>
