<svg width="108" height="90" viewBox="0 0 108 90" fill="none" xmlns="http://www.w3.org/2000/svg">
<path d="M95.0898 89.9876C102.219 89.9876 108.003 85.1838 108.003 79.2479V10.7572C108.003 4.81544 102.219 0 95.0898 0H12.9067C5.78418 0 0 4.81472 0 10.7572V79.2487C0 85.1845 5.78418 89.9883 12.9076 89.9883L95.0898 89.9876Z" fill="#7F7F7F"/>
<path fill-rule="evenodd" clip-rule="evenodd" d="M31 24V61.6429L53.0602 66.9033L76.5318 61.6429L76.5343 24L53.093 29.4579L31.0013 24H31ZM32.3523 25.5196L52.3767 30.5942L52.3185 65.6877L32.3523 60.8253V25.519L32.3523 25.5196ZM75.1717 25.5196L75.1841 60.8038L53.6671 65.6623L53.7277 30.5943L75.1732 25.5197L75.1717 25.5196ZM37.138 35.1621L36.8569 36.3169L47.5321 39.0214L47.8278 37.8016L37.138 35.1621ZM70.0356 35.1621L59.3458 37.8015L59.6415 39.0214L70.3167 36.3168L70.0356 35.1621ZM37.138 43.4244L36.8569 44.5792L47.5321 47.2838L47.8278 46.064L37.138 43.4244ZM70.0356 43.4244L59.3458 46.0639L59.6415 47.2837L70.3167 44.5792L70.0356 43.4244ZM37.138 52.586L36.8569 53.7408L47.5321 56.4453L47.8278 55.2255L37.138 52.586ZM70.0356 52.586L59.3458 55.2254L59.6415 56.4453L70.3167 53.7407L70.0356 52.586Z" fill="white"/>
</svg>
