<svg width="117" height="70" viewBox="0 0 117 70" fill="none" xmlns="http://www.w3.org/2000/svg">
<path fill-rule="evenodd" clip-rule="evenodd" d="M47.7934 16.0499C38.5069 9.932 29.3242 8.58234 19.8301 10.9176C21.9063 6.22043 25.0301 3.1393 28.7013 1.69196C33.9014 -0.359169 42.414 1.09705 45.7643 5.48345C47.482 7.72105 48.3408 11.0419 47.7934 16.0499ZM78.89 49.898C78.6352 48.9035 79.2958 47.909 80.3528 47.6693C81.4098 47.4295 82.4668 48.0511 82.7216 49.0456C83.2313 51.0612 84.109 52.6239 85.2792 53.7516C86.4778 54.8971 88.0161 55.634 89.847 55.9715C90.9134 56.1668 91.6023 57.1347 91.3947 58.138C91.1871 59.1414 90.1584 59.7896 89.092 59.5942C86.4872 59.1059 84.2505 58.0315 82.4857 56.3355C80.7964 54.7195 79.5695 52.5884 78.89 49.898ZM12.8463 49.898C12.5915 48.9035 13.2521 47.909 14.3091 47.6693C15.3661 47.4295 16.4231 48.0511 16.6779 49.0456C17.1876 51.0612 18.0653 52.6239 19.2355 53.7516C20.4341 54.8971 21.9724 55.634 23.8033 55.9715C24.8697 56.1668 25.5586 57.1347 25.351 58.138C25.1434 59.1414 24.1147 59.7896 23.0483 59.5942C20.4435 59.1059 18.2068 58.0315 16.442 56.3355C14.7527 54.7195 13.5258 52.5884 12.8463 49.898ZM57.9199 43.1408C60.5624 43.1408 62.7047 45.1031 62.7047 47.5183C62.7047 49.9335 60.5624 51.8958 57.9199 51.8958C55.2774 51.8958 53.135 49.9335 53.135 47.5183C53.135 45.1031 55.2774 43.1408 57.9199 43.1408ZM25.2283 31.4733C34.6658 31.4733 42.3197 38.4703 42.3197 47.1099C42.3197 55.7406 34.6658 62.7464 25.2283 62.7464C15.7908 62.7464 8.137 55.7495 8.137 47.1099C8.137 38.4703 15.7814 31.4733 25.2283 31.4733ZM91.272 31.4733C100.71 31.4733 108.363 38.4703 108.363 47.1099C108.363 55.7406 100.71 62.7464 91.272 62.7464C81.8345 62.7464 74.1807 55.7495 74.1807 47.1099C74.1807 38.4703 81.8251 31.4733 91.272 31.4733ZM68.3106 16.0499C77.5971 9.932 86.7798 8.58234 96.2645 10.9176C94.1882 6.22043 91.0644 3.1393 87.3932 1.69196C82.1931 -0.359169 73.6805 1.09705 70.3396 5.48345C68.622 7.72105 67.7632 11.0419 68.3106 16.0499ZM101.587 16.2275C98.3596 13.1019 93.1312 11.6901 85.8926 11.992C77.6915 12.3738 69.0278 15.597 66.2438 22.9047C63.9127 18.0921 52.1913 18.0921 49.8697 22.9047C47.0856 15.597 38.422 12.3649 30.2208 11.992C22.9822 11.6901 17.7633 13.1108 14.5262 16.2275C9.97731 21.9635 0.97393 36.9519 0.218929 44.2774C-2.8577 74.0054 42.4612 81.4641 49.7281 50.7682C53.8523 57.6497 62.2517 57.6497 66.3759 50.7682C73.6428 81.473 118.962 74.0054 115.885 44.2774C115.13 36.9519 106.127 21.9635 101.587 16.2275Z" fill="#555555"/>
</svg>
